<svg width="124" height="100" viewBox="0 0 124 100" fill="none" xmlns="http://www.w3.org/2000/svg">
<g clip-path="url(#clip0_1_26)">
<path fill-rule="evenodd" clip-rule="evenodd" d="M25 0C24.4477 0 24 0.447714 24 0.999999V74C24 74.5523 24.4477 75 25 75H99C99.5523 75 100 74.5523 100 74V1C100 0.447715 99.5523 0 99 0H25ZM36 15C34.8954 15 34 15.8954 34 17V21C34 22.1046 34.8954 23 36 23H88C89.1046 23 90 22.1046 90 21V17C90 15.8954 89.1046 15 88 15H36ZM34 37C34 35.8954 34.8954 35 36 35H88C89.1046 35 90 35.8954 90 37V41C90 42.1046 89.1046 43 88 43H36C34.8954 43 34 42.1046 34 41V37ZM36 55C34.8954 55 34 55.8954 34 57V61C34 62.1046 34.8954 63 36 63H88C89.1046 63 90 62.1046 90 61V57C90 55.8954 89.1046 55 88 55H36Z" fill="black"/>
<path fill-rule="evenodd" clip-rule="evenodd" d="M25 0C24.4477 0 24 0.447714 24 0.999999V74C24 74.5523 24.4477 75 25 75H99C99.5523 75 100 74.5523 100 74V1C100 0.447715 99.5523 0 99 0H25ZM36 15C34.8954 15 34 15.8954 34 17V21C34 22.1046 34.8954 23 36 23H88C89.1046 23 90 22.1046 90 21V17C90 15.8954 89.1046 15 88 15H36ZM34 37C34 35.8954 34.8954 35 36 35H88C89.1046 35 90 35.8954 90 37V41C90 42.1046 89.1046 43 88 43H36C34.8954 43 34 42.1046 34 41V37ZM36 55C34.8954 55 34 55.8954 34 57V61C34 62.1046 34.8954 63 36 63H88C89.1046 63 90 62.1046 90 61V57C90 55.8954 89.1046 55 88 55H36Z" fill="url(#paint0_linear_1_26)" fill-opacity="0.2"/>
<ellipse cx="62" cy="85.5" rx="62" ry="14.5" fill="#2E2E2E"/>
<ellipse cx="62" cy="87" rx="38" ry="8" fill="black"/>
</g>
<defs>
<linearGradient id="paint0_linear_1_26" x1="103.5" y1="44.5" x2="21" y2="44.5" gradientUnits="userSpaceOnUse">
<stop/>
<stop offset="0.489583" stop-color="white"/>
<stop offset="1"/>
</linearGradient>
<clipPath id="clip0_1_26">
<rect width="124" height="100" fill="white"/>
</clipPath>
</defs>
</svg>
