<svg width="143" height="86" viewBox="0 0 143 86" fill="none" xmlns="http://www.w3.org/2000/svg">
<g clip-path="url(#clip0_10_126)">
<path d="M116.053 81.9578L107.139 84.6095L107.688 75.6124C109.183 57.9202 119.266 61.1748 117.412 71.065C125.544 65.3089 132.578 77.5471 116.053 81.9578Z" stroke="#212121"/>
<path d="M61.44 33.41V32.6H69.96C71.94 32.6 73.45 33.1 74.49 34.1C75.53 35.08 76.05 36.39 76.05 38.03V38.9C76.05 40.54 75.53 41.86 74.49 42.86C73.45 43.86 71.94 44.36 69.96 44.36H66.36V50.57C66.36 51.27 66.39 51.69 66.45 51.83C66.51 51.95 66.7 52.02 67.02 52.04L69.27 52.22V53H61.44V52.22L63.09 52.04C63.41 52 63.6 51.92 63.66 51.8C63.72 51.68 63.75 51.27 63.75 50.57V35.03C63.75 34.33 63.72 33.92 63.66 33.8C63.6 33.68 63.41 33.6 63.09 33.56L61.44 33.41ZM69.96 33.56H66.36V43.4H69.96C72.18 43.4 73.29 42.04 73.29 39.32V37.61C73.29 34.91 72.18 33.56 69.96 33.56ZM94.6936 41.66V43.91C94.6936 46.83 94.0236 49.13 92.6836 50.81C91.3436 52.47 89.4236 53.3 86.9236 53.3C84.4036 53.3 82.4736 52.47 81.1336 50.81C79.8136 49.13 79.1536 46.83 79.1536 43.91V41.66C79.1536 38.76 79.8136 36.48 81.1336 34.82C82.4736 33.14 84.4036 32.3 86.9236 32.3C89.4236 32.3 91.3436 33.14 92.6836 34.82C94.0236 36.48 94.6936 38.76 94.6936 41.66ZM91.8436 40.16C91.8436 37.66 91.4236 35.89 90.5836 34.85C89.7636 33.79 88.5436 33.26 86.9236 33.26C85.3036 33.26 84.0736 33.79 83.2336 34.85C82.4136 35.89 82.0036 37.66 82.0036 40.16V45.41C82.0036 47.91 82.4136 49.69 83.2336 50.75C84.0736 51.81 85.3036 52.34 86.9236 52.34C88.5436 52.34 89.7636 51.81 90.5836 50.75C91.4236 49.69 91.8436 47.91 91.8436 45.41V40.16ZM111.194 48.05H112.004V53H98.3541V52.22L100.004 52.04C100.324 52 100.514 51.92 100.574 51.8C100.634 51.68 100.664 51.27 100.664 50.57V35.03C100.664 34.33 100.634 33.92 100.574 33.8C100.514 33.68 100.324 33.6 100.004 33.56L98.3541 33.41V32.6H105.584V33.41L103.934 33.56C103.614 33.6 103.424 33.68 103.364 33.8C103.304 33.92 103.274 34.33 103.274 35.03V52.04H108.704C109.184 52.04 109.524 52.03 109.724 52.01C109.924 51.97 110.054 51.9 110.114 51.8C110.194 51.68 110.264 51.5 110.324 51.26L111.194 48.05ZM113.794 33.41V32.6H122.314C124.754 32.6 126.624 33.39 127.924 34.97C129.224 36.55 129.874 38.78 129.874 41.66V43.91C129.874 46.81 129.224 49.05 127.924 50.63C126.624 52.21 124.754 53 122.314 53H113.794V52.22L115.444 52.04C115.764 52 115.954 51.92 116.014 51.8C116.074 51.68 116.104 51.27 116.104 50.57V35.03C116.104 34.33 116.074 33.92 116.014 33.8C115.954 33.68 115.764 33.6 115.444 33.56L113.794 33.41ZM122.254 33.56H118.714V52.04H122.254C123.334 52.04 124.224 51.84 124.924 51.44C125.624 51.04 126.144 50.36 126.484 49.4C126.844 48.42 127.024 47.09 127.024 45.41V40.16C127.024 38.5 126.844 37.19 126.484 36.23C126.144 35.27 125.624 34.59 124.924 34.19C124.224 33.77 123.334 33.56 122.254 33.56Z" fill="#212121"/>
<path d="M47.716 70.036C46.516 70.036 45.61 69.832 44.998 69.424C44.386 69.004 44.08 68.248 44.08 67.156C44.32 61.156 44.704 58.294 45.232 58.57C45.496 58.582 45.628 58.99 45.628 59.794C45.628 60.286 45.544 61.324 45.376 62.908C45.16 64.732 45.052 66.07 45.052 66.922L45.07 67.444C45.07 67.708 45.148 67.972 45.304 68.236C45.472 68.5 45.682 68.644 45.934 68.668L49.462 68.974C49.594 68.986 49.66 69.112 49.66 69.352C49.66 69.568 49.606 69.718 49.498 69.802C49.402 69.886 49.228 69.952 48.976 70L47.716 70.036ZM54.2341 69.784C54.0421 69.76 53.8621 69.748 53.6941 69.748C53.5381 69.736 53.4301 69.73 53.3701 69.73C53.3221 69.718 53.2981 69.694 53.2981 69.658C53.2141 69.274 53.1541 68.938 53.1181 68.65C53.0821 68.35 53.0581 68.074 53.0461 67.822C53.0341 67.462 53.0041 67.108 52.9561 66.76C52.9201 66.4 52.8361 65.926 52.7041 65.338C52.0321 65.446 51.5821 65.5 51.3541 65.5C51.1141 65.5 50.9341 65.458 50.8141 65.374C50.6941 65.278 50.6341 65.128 50.6341 64.924C50.6341 64.804 50.7001 64.744 50.8321 64.744L51.3721 64.69C51.4561 64.678 51.8401 64.63 52.5241 64.546C52.5001 64.198 52.4521 63.484 52.3801 62.404C52.3441 61.54 52.2901 60.85 52.2181 60.334L49.9681 60.532C49.8001 60.64 49.6681 60.694 49.5721 60.694C49.4281 60.586 49.3381 60.448 49.3021 60.28C49.5901 59.968 50.2801 59.71 51.3721 59.506C52.4761 59.302 53.6701 59.2 54.9541 59.2C56.5621 59.2 57.9421 59.374 59.0941 59.722C60.2461 60.058 60.8701 60.58 60.9661 61.288C60.5941 61.288 60.2341 61.246 59.8861 61.162C59.5381 61.078 59.1001 60.952 58.5721 60.784C57.9001 60.556 57.2821 60.382 56.7181 60.262C56.1661 60.142 55.5421 60.082 54.8461 60.082C54.4021 60.082 53.9161 60.118 53.3881 60.19C53.3881 61.306 53.4181 62.716 53.4781 64.42L54.1081 64.366C56.0281 64.21 57.1501 64.132 57.4741 64.132C57.6301 64.132 57.7381 64.144 57.7981 64.168C57.8581 64.18 57.9061 64.204 57.9421 64.24C57.9541 64.6 57.6121 64.858 56.9161 65.014C56.2201 65.158 55.1161 65.26 53.6041 65.32C53.6641 65.908 53.7781 66.676 53.9461 67.624C54.1021 68.512 54.1981 69.232 54.2341 69.784Z" fill="#212121"/>
<path d="M30.908 53C29.396 53 28.052 52.448 26.876 51.344C25.7 50.216 24.692 48.692 23.852 46.772C23.372 48.668 22.604 50.084 21.548 51.02C20.492 51.932 19.328 52.388 18.056 52.388C16.256 52.388 14.924 50.84 14.06 47.744C13.22 44.648 12.8 40.94 12.8 36.62C12.8 35.372 12.896 34.388 13.088 33.668C13.28 32.924 13.64 32.552 14.168 32.552C14.384 32.552 14.552 32.96 14.672 33.776C14.816 34.592 14.888 35.624 14.888 36.872C14.888 45.848 16.04 50.336 18.344 50.336C19.208 50.336 19.94 50.096 20.54 49.616C21.14 49.136 21.704 48.356 22.232 47.276C22.496 46.628 22.628 45.56 22.628 44.072L22.592 41.804C22.712 41.588 22.928 41.48 23.24 41.48C23.456 41.48 23.66 41.54 23.852 41.66C24.068 41.756 24.212 41.924 24.284 42.164C24.452 43.436 24.788 44.732 25.292 46.052C25.82 47.348 26.516 48.452 27.38 49.364C28.268 50.252 29.312 50.696 30.512 50.696C32.168 50.696 33.344 50.336 34.04 49.616C34.736 48.872 35.084 47.876 35.084 46.628C35.084 43.916 34.892 41.744 34.508 40.112C34.148 38.456 33.668 36.896 33.068 35.432C32.804 34.736 32.612 34.22 32.492 33.884C32.396 33.548 32.348 33.2 32.348 32.84C32.516 32.456 32.744 32.264 33.032 32.264C33.56 32.264 34.136 32.9 34.76 34.172C35.408 35.444 35.96 37.16 36.416 39.32C36.872 41.456 37.1 43.76 37.1 46.232C37.1 47.6 36.812 48.8 36.236 49.832C35.684 50.84 34.928 51.62 33.968 52.172C33.032 52.724 32.012 53 30.908 53ZM51.0821 53.036C49.0901 53.036 47.3021 52.628 45.7181 51.812C44.1581 50.996 42.9341 49.844 42.0461 48.356C41.1581 46.868 40.7141 45.152 40.7141 43.208C40.7141 41.888 40.9781 40.676 41.5061 39.572C42.0341 38.468 42.8021 37.592 43.8101 36.944C44.8181 36.272 46.0061 35.936 47.3741 35.936C49.9661 35.936 52.2701 36.38 54.2861 37.268C56.3261 38.132 57.9101 39.38 59.0381 41.012C60.1901 42.644 60.7661 44.528 60.7661 46.664C60.7661 48.08 60.2381 49.268 59.1821 50.228C58.1501 51.188 56.8781 51.896 55.3661 52.352C53.8781 52.808 52.4501 53.036 51.0821 53.036ZM50.3981 51.164C52.7981 51.164 54.8141 50.804 56.4461 50.084C58.1021 49.364 58.9301 48.164 58.9301 46.484C58.9301 43.556 57.8021 41.36 55.5461 39.896C53.2901 38.408 50.4101 37.664 46.9061 37.664C45.2261 37.664 44.0381 38.168 43.3421 39.176C42.6701 40.16 42.3341 41.504 42.3341 43.208C42.3341 44.624 42.6701 45.944 43.3421 47.168C44.0381 48.368 44.9981 49.34 46.2221 50.084C47.4461 50.804 48.8381 51.164 50.3981 51.164Z" fill="#212121"/>
<path d="M68.14 24.525H68.545V27H61.72V26.61L62.545 26.52C62.705 26.5 62.8 26.46 62.83 26.4C62.86 26.34 62.875 26.135 62.875 25.785V18.015C62.875 17.665 62.86 17.46 62.83 17.4C62.8 17.34 62.705 17.3 62.545 17.28L61.72 17.205V16.8H65.335V17.205L64.51 17.28C64.35 17.3 64.255 17.34 64.225 17.4C64.195 17.46 64.18 17.665 64.18 18.015V26.52H66.895C67.135 26.52 67.305 26.515 67.405 26.505C67.505 26.485 67.57 26.45 67.6 26.4C67.64 26.34 67.675 26.25 67.705 26.13L68.14 24.525ZM76.2347 24.555H76.6247V27H69.4397V26.61L70.2647 26.52C70.4247 26.5 70.5197 26.46 70.5497 26.4C70.5797 26.34 70.5947 26.135 70.5947 25.785V18.015C70.5947 17.665 70.5797 17.46 70.5497 17.4C70.5197 17.34 70.4247 17.3 70.2647 17.28L69.4397 17.205V16.8H76.4297V19.245H76.0547L75.6197 17.67C75.5897 17.55 75.5547 17.465 75.5147 17.415C75.4847 17.355 75.4197 17.32 75.3197 17.31C75.2197 17.29 75.0497 17.28 74.8097 17.28H71.8997V21.615H73.9097C74.1497 21.615 74.3197 21.61 74.4197 21.6C74.5197 21.58 74.5847 21.545 74.6147 21.495C74.6547 21.435 74.6897 21.345 74.7197 21.225L75.0047 20.1H75.3947V23.61H75.0047L74.7197 22.485C74.6897 22.365 74.6547 22.28 74.6147 22.23C74.5847 22.17 74.5197 22.135 74.4197 22.125C74.3197 22.105 74.1497 22.095 73.9097 22.095H71.8997V26.52H74.9897C75.2297 26.52 75.3997 26.515 75.4997 26.505C75.5997 26.485 75.6647 26.45 75.6947 26.4C75.7347 26.34 75.7697 26.25 75.7997 26.13L76.2347 24.555ZM86.3009 21.33V22.455C86.3009 23.915 85.9659 25.065 85.2959 25.905C84.6259 26.735 83.6659 27.15 82.4159 27.15C81.1559 27.15 80.1909 26.735 79.5209 25.905C78.8609 25.065 78.5309 23.915 78.5309 22.455V21.33C78.5309 19.88 78.8609 18.74 79.5209 17.91C80.1909 17.07 81.1559 16.65 82.4159 16.65C83.6659 16.65 84.6259 17.07 85.2959 17.91C85.9659 18.74 86.3009 19.88 86.3009 21.33ZM84.8759 20.58C84.8759 19.33 84.6659 18.445 84.2459 17.925C83.8359 17.395 83.2259 17.13 82.4159 17.13C81.6059 17.13 80.9909 17.395 80.5709 17.925C80.1609 18.445 79.9559 19.33 79.9559 20.58V23.205C79.9559 24.455 80.1609 25.345 80.5709 25.875C80.9909 26.405 81.6059 26.67 82.4159 26.67C83.2259 26.67 83.8359 26.405 84.2459 25.875C84.6659 25.345 84.8759 24.455 84.8759 23.205V20.58Z" fill="#212121"/>
<path d="M59.7076 22H2V64H40.1372M89.3141 22H141V64H63.2202" stroke="#C6C6C6"/>
<path d="M107.139 84.6096L116.053 81.9578C132.578 77.5472 125.544 65.3089 117.412 71.065C118.347 66.0795 116.248 62.7801 113.745 63" stroke="#212121"/>
</g>
<defs>
<clipPath id="clip0_10_126">
<rect width="143" height="86" fill="white"/>
</clipPath>
</defs>
</svg>
